<svg xmlns="http://www.w3.org/2000/svg" xmlns:xlink="http://www.w3.org/1999/xlink" width="69mm" height="94mm" class="card" face="2D" preserveAspectRatio="none" viewBox="-132 -180 264 360"><defs><symbol id="SD2" preserveAspectRatio="xMinYMid" viewBox="-600 -600 1200 1200"><path fill="red" d="M-400 0C-350 0 0 -450 0 -500C0 -450 350 0 400 0C350 0 0 450 0 500C0 450 -350 0 -400 0Z"/></symbol><symbol id="VD2" preserveAspectRatio="xMinYMid" viewBox="-500 -500 1000 1000"><path fill="none" stroke="red" stroke-linecap="square" stroke-miterlimit="1.5" stroke-width="80" d="M-225 -225C-245 -265 -200 -460 0 -460C 200 -460 225 -325 225 -225C225 -25 -225 160 -225 460L225 460L225 300"/></symbol></defs><rect width="480" height="672" x="-240" y="-336" fill="#fff"/><rect width="239" height="335" x="-119.5" y="-167.5" fill="#fff" stroke="#000" rx="12" ry="12"/><use width="50" height="50" x="-116" y="-154" xlink:href="#VD2"/><use width="41.827" height="41.827" x="-111.913" y="-99" xlink:href="#SD2"/><use width="50" height="50" x="-25" y="-119.834" xlink:href="#SD2"/><use width="50" height="50" x="-25" y="69.834" xlink:href="#SD2"/><g transform="rotate(180)"><use width="50" height="50" x="-116" y="-154" xlink:href="#VD2"/><use width="41.827" height="41.827" x="-111.913" y="-99" xlink:href="#SD2"/></g></svg>