<svg xmlns="http://www.w3.org/2000/svg" xmlns:xlink="http://www.w3.org/1999/xlink" width="69mm" height="94mm" class="card" face="2S" preserveAspectRatio="none" viewBox="-132 -180 264 360"><defs><symbol id="SS2" preserveAspectRatio="xMinYMid" viewBox="-600 -600 1200 1200"><path fill="#000" d="M0 -500C100 -250 355 -100 355 185A150 150 0 0 1 55 185A10 10 0 0 0 35 185C35 385 85 400 130 500L-130 500C-85 400 -35 385 -35 185A10 10 0 0 0 -55 185A150 150 0 0 1 -355 185C-355 -100 -100 -250 0 -500Z"/></symbol><symbol id="VS2" preserveAspectRatio="xMinYMid" viewBox="-500 -500 1000 1000"><path fill="none" stroke="#000" stroke-linecap="square" stroke-miterlimit="1.5" stroke-width="80" d="M-225 -225C-245 -265 -200 -460 0 -460C 200 -460 225 -325 225 -225C225 -25 -225 160 -225 460L225 460L225 300"/></symbol></defs><rect width="480" height="672" x="-240" y="-336" fill="#fff"/><rect width="239" height="335" x="-119.5" y="-167.5" fill="#fff" stroke="#000" rx="12" ry="12"/><use width="50" height="50" x="-116" y="-154" xlink:href="#VS2"/><use width="41.827" height="41.827" x="-111.913" y="-99" xlink:href="#SS2"/><use width="50" height="50" x="-25" y="-119.834" xlink:href="#SS2"/><use width="50" height="50" x="-25" y="69.834" xlink:href="#SS2"/><g transform="rotate(180)"><use width="50" height="50" x="-116" y="-154" xlink:href="#VS2"/><use width="41.827" height="41.827" x="-111.913" y="-99" xlink:href="#SS2"/></g></svg>