<?xml version="1.0" encoding="UTF-8" standalone="no"?>
<svg xmlns="http://www.w3.org/2000/svg" xmlns:xlink="http://www.w3.org/1999/xlink" class="card" face="7S" height="94mm" preserveAspectRatio="none" viewBox="-132 -180 264 360" width="69mm"><defs><symbol id="SS7" viewBox="-600 -600 1200 1200" preserveAspectRatio="xMinYMid"><path d="M0 -500C100 -250 355 -100 355 185A150 150 0 0 1 55 185A10 10 0 0 0 35 185C35 385 85 400 130 500L-130 500C-85 400 -35 385 -35 185A10 10 0 0 0 -55 185A150 150 0 0 1 -355 185C-355 -100 -100 -250 0 -500Z" fill="black"></path></symbol><symbol id="VS7" viewBox="-500 -500 1000 1000" preserveAspectRatio="xMinYMid"><path d="M-265 -320L-265 -460L265 -460C135 -200 -90 100 -90 460" stroke="black" stroke-width="80" stroke-linecap="square" stroke-miterlimit="1.5" fill="none"></path></symbol></defs><rect x="-240" y="-336" width="480" height="672" fill="white"></rect><rect width="239" height="335" x="-119.5" y="-167.5" rx="12" ry="12" fill="white" stroke="black"></rect><use xlink:href="#VS7" height="50" width="50" x="-116" y="-154"></use><use xlink:href="#SS7" height="41.827" width="41.827" x="-111.913" y="-99"></use><use xlink:href="#SS7" height="50" width="50" x="-71.834" y="-119.834"></use><use xlink:href="#SS7" height="50" width="50" x="21.834" y="-119.834"></use><use xlink:href="#SS7" height="50" width="50" x="-71.834" y="-25"></use><use xlink:href="#SS7" height="50" width="50" x="21.834" y="-25"></use><use xlink:href="#SS7" height="50" width="50" x="-25" y="-72.417"></use><use xlink:href="#SS7" height="50" width="50" x="-71.834" y="69.834"></use><use xlink:href="#SS7" height="50" width="50" x="21.834" y="69.834"></use><g transform="rotate(180)"><use xlink:href="#VS7" height="50" width="50" x="-116" y="-154"></use><use xlink:href="#SS7" height="41.827" width="41.827" x="-111.913" y="-99"></use></g></svg>