<?xml version="1.0" encoding="UTF-8" standalone="no"?>
<svg xmlns="http://www.w3.org/2000/svg" xmlns:xlink="http://www.w3.org/1999/xlink" class="card" face="8H" height="94mm" preserveAspectRatio="none" viewBox="-132 -180 264 360" width="69mm"><defs><symbol id="SH8" viewBox="-600 -600 1200 1200" preserveAspectRatio="xMinYMid"><path d="M0 -300C0 -400 100 -500 200 -500C300 -500 400 -400 400 -250C400 0 0 400 0 500C0 400 -400 0 -400 -250C-400 -400 -300 -500 -200 -500C-100 -500 0 -400 -0 -300Z" fill="red"></path></symbol><symbol id="VH8" viewBox="-500 -500 1000 1000" preserveAspectRatio="xMinYMid"><path d="M-1 -50A205 205 0 1 1 1 -50L-1 -50A255 255 0 1 0 1 -50Z" stroke="red" stroke-width="80" stroke-linecap="square" stroke-miterlimit="1.5" fill="none"></path></symbol></defs><rect x="-240" y="-336" width="480" height="672" fill="white"></rect><rect width="239" height="335" x="-119.5" y="-167.5" rx="12" ry="12" fill="white" stroke="black"></rect><use xlink:href="#VH8" height="50" width="50" x="-116" y="-154"></use><use xlink:href="#SH8" height="41.827" width="41.827" x="-111.913" y="-99"></use><use xlink:href="#SH8" height="50" width="50" x="-71.834" y="-119.834"></use><use xlink:href="#SH8" height="50" width="50" x="21.834" y="-119.834"></use><use xlink:href="#SH8" height="50" width="50" x="-25" y="-72.417"></use><use xlink:href="#SH8" height="50" width="50" x="-71.834" y="-25"></use><use xlink:href="#SH8" height="50" width="50" x="21.834" y="-25"></use><use xlink:href="#SH8" height="50" width="50" x="-71.834" y="69.834"></use><use xlink:href="#SH8" height="50" width="50" x="21.834" y="69.834"></use><use xlink:href="#SH8" height="50" width="50" x="-25" y="22.417"></use><g transform="rotate(180)"><use xlink:href="#VH8" height="50" width="50" x="-116" y="-154"></use><use xlink:href="#SH8" height="41.827" width="41.827" x="-111.913" y="-99"></use></g></svg>