<svg xmlns="http://www.w3.org/2000/svg" xmlns:xlink="http://www.w3.org/1999/xlink" width="69mm" height="94mm" class="card" face="9C" preserveAspectRatio="none" viewBox="-132 -180 264 360"><defs><symbol id="SC9" preserveAspectRatio="xMinYMid" viewBox="-600 -600 1200 1200"><path fill="#000" d="M30 150C35 385 85 400 130 500L-130 500C-85 400 -35 385 -30 150A10 10 0 0 0 -50 150A210 210 0 1 1 -124 -51A10 10 0 0 0 -110 -65A230 230 0 1 1 110 -65A10 10 0 0 0 124 -51A210 210 0 1 1 50 150A10 10 0 0 0 30 150Z"/></symbol><symbol id="VC9" preserveAspectRatio="xMinYMid" viewBox="-500 -500 1000 1000"><path fill="none" stroke="#000" stroke-linecap="square" stroke-miterlimit="1.5" stroke-width="80" d="M250 -100A250 250 0 0 1 -250 -100L-250 -210A250 250 0 0 1 250 -210L250 210A250 250 0 0 1 0 460C-150 460 -180 400 -200 375"/></symbol></defs><rect width="480" height="672" x="-240" y="-336" fill="#fff"/><rect width="239" height="335" x="-119.5" y="-167.5" fill="#fff" stroke="#000" rx="12" ry="12"/><use width="50" height="50" x="-116" y="-154" xlink:href="#VC9"/><use width="41.827" height="41.827" x="-111.913" y="-99" xlink:href="#SC9"/><use width="50" height="50" x="-71.834" y="-119.897" xlink:href="#SC9"/><use width="50" height="50" x="21.834" y="-119.897" xlink:href="#SC9"/><use width="50" height="50" x="-71.834" y="-56.632" xlink:href="#SC9"/><use width="50" height="50" x="21.834" y="-56.632" xlink:href="#SC9"/><use width="50" height="50" x="-25" y="-25" xlink:href="#SC9"/><use width="50" height="50" x="-71.834" y="69.897" xlink:href="#SC9"/><use width="50" height="50" x="21.834" y="69.897" xlink:href="#SC9"/><use width="50" height="50" x="-71.834" y="6.632" xlink:href="#SC9"/><use width="50" height="50" x="21.834" y="6.632" xlink:href="#SC9"/><g transform="rotate(180)"><use width="50" height="50" x="-116" y="-154" xlink:href="#VC9"/><use width="41.827" height="41.827" x="-111.913" y="-99" xlink:href="#SC9"/></g></svg>