<svg xmlns="http://www.w3.org/2000/svg" xmlns:xlink="http://www.w3.org/1999/xlink" width="69mm" height="94mm" class="card" face="JH" preserveAspectRatio="none" viewBox="-132 -180 264 360"><defs><symbol id="SHJ" preserveAspectRatio="xMinYMid" viewBox="-600 -600 1200 1200"><path fill="red" d="M0 -300C0 -400 100 -500 200 -500C300 -500 400 -400 400 -250C400 0 0 400 0 500C0 400 -400 0 -400 -250C-400 -400 -300 -500 -200 -500C-100 -500 0 -400 -0 -300Z"/></symbol><symbol id="VHJ" preserveAspectRatio="xMinYMid" viewBox="-500 -500 1000 1000"><path fill="none" stroke="red" stroke-linecap="square" stroke-miterlimit="1.5" stroke-width="80" d="M50 -460L250 -460M150 -460L150 250A100 100 0 0 1 -250 250L-250 220"/></symbol></defs><rect width="480" height="672" x="-240" y="-336" fill="#fff"/><rect width="239" height="335" x="-119.5" y="-167.5" fill="#fff" stroke="#000" rx="12" ry="12"/><use width="140" height="140" x="-70" y="-70" xlink:href="#VHJ"/><use width="50" height="50" x="-116" y="-154" xlink:href="#VHJ"/><use width="41.827" height="41.827" x="-111.913" y="-99" xlink:href="#SHJ"/><g transform="rotate(180)"><use width="50" height="50" x="-116" y="-154" xlink:href="#VHJ"/><use width="41.827" height="41.827" x="-111.913" y="-99" xlink:href="#SHJ"/></g></svg>