<?xml version="1.0" encoding="UTF-8" standalone="no"?>
<svg xmlns="http://www.w3.org/2000/svg" xmlns:xlink="http://www.w3.org/1999/xlink" class="card" face="KD" height="94mm" preserveAspectRatio="none" viewBox="-132 -180 264 360" width="69mm"><defs><symbol id="SDK" viewBox="-600 -600 1200 1200" preserveAspectRatio="xMinYMid"><path d="M-400 0C-350 0 0 -450 0 -500C0 -450 350 0 400 0C350 0 0 450 0 500C0 450 -350 0 -400 0Z" fill="red"></path></symbol><symbol id="VDK" viewBox="-500 -500 1000 1000" preserveAspectRatio="xMinYMid"><path d="M-285 -460L-85 -460M-185 -460L-185 460M-285 460L-85 460M85 -460L285 -460M185 -440L-170 155M85 460L285 460M185 440L-10 -70" stroke="red" stroke-width="80" stroke-linecap="square" stroke-miterlimit="1.5" fill="none"></path></symbol></defs><rect x="-240" y="-336" width="480" height="672" fill="white"></rect><rect width="239" height="335" x="-119.5" y="-167.5" rx="12" ry="12" fill="white" stroke="black"></rect><use xlink:href="#VDK" height="140" width="140" x="-70" y="-70"></use><use xlink:href="#VDK" height="50" width="50" x="-116" y="-154"></use><use xlink:href="#SDK" height="41.827" width="41.827" x="-111.913" y="-99"></use><g transform="rotate(180)"><use xlink:href="#VDK" height="50" width="50" x="-116" y="-154"></use><use xlink:href="#SDK" height="41.827" width="41.827" x="-111.913" y="-99"></use></g></svg>