<svg xmlns="http://www.w3.org/2000/svg" xmlns:xlink="http://www.w3.org/1999/xlink" width="69mm" height="94mm" class="card" face="KH" preserveAspectRatio="none" viewBox="-132 -180 264 360"><defs><symbol id="SHK" preserveAspectRatio="xMinYMid" viewBox="-600 -600 1200 1200"><path fill="red" d="M0 -300C0 -400 100 -500 200 -500C300 -500 400 -400 400 -250C400 0 0 400 0 500C0 400 -400 0 -400 -250C-400 -400 -300 -500 -200 -500C-100 -500 0 -400 -0 -300Z"/></symbol><symbol id="VHK" preserveAspectRatio="xMinYMid" viewBox="-500 -500 1000 1000"><path fill="none" stroke="red" stroke-linecap="square" stroke-miterlimit="1.5" stroke-width="80" d="M-285 -460L-85 -460M-185 -460L-185 460M-285 460L-85 460M85 -460L285 -460M185 -440L-170 155M85 460L285 460M185 440L-10 -70"/></symbol></defs><rect width="480" height="672" x="-240" y="-336" fill="#fff"/><rect width="239" height="335" x="-119.5" y="-167.5" fill="#fff" stroke="#000" rx="12" ry="12"/><use width="140" height="140" x="-70" y="-70" xlink:href="#VHK"/><use width="50" height="50" x="-116" y="-154" xlink:href="#VHK"/><use width="41.827" height="41.827" x="-111.913" y="-99" xlink:href="#SHK"/><g transform="rotate(180)"><use width="50" height="50" x="-116" y="-154" xlink:href="#VHK"/><use width="41.827" height="41.827" x="-111.913" y="-99" xlink:href="#SHK"/></g></svg>